<?xml version="1.0" encoding="utf-8"?>
<!-- Svg Vector Icons : http://www.onlinewebfonts.com/icon -->
<!DOCTYPE svg PUBLIC "-//W3C//DTD SVG 1.1//EN" "http://www.w3.org/Graphics/SVG/1.1/DTD/svg11.dtd">
<svg version="1.1" xmlns="http://www.w3.org/2000/svg" xmlns:xlink="http://www.w3.org/1999/xlink" x="0px" y="0px" viewBox="0 0 1000 1000" enable-background="new 0 0 1000 1000" xml:space="preserve">
<metadata> Svg Vector Icons : http://www.onlinewebfonts.com/icon </metadata>
<g><g transform="translate(0.000000,511.000000) scale(0.100000,-0.100000)"><path d="M4850.9,4978.7c-224.7-121.5-619.1-516-820.9-816.4c-165.1-247.7-293.5-522.8-371.5-788.8c-110.1-380.7-126.1-568.7-126.1-1524.9V965.8l-676.5-676.5c-527.4-529.7-685.6-701.7-726.9-791.1c-43.6-96.3-52.7-162.8-59.6-419.6l-9.2-305l651.3,6.9l649,6.9l126.1,61.9c121.5,59.6,126.1,61.9,172,20.6c87.1-80.3,146.8-94,376.1-94h231.6l-126.1-252.2c-123.8-247.7-144.5-323.3-105.5-387.5c13.8-20.7-18.3-84.9-100.9-208.7c-169.7-249.9-206.4-369.2-206.4-676.5c2.3-607.7,222.4-997.5,986-1754.2l291.2-286.6l364.6,376.1c536.6,550.4,724.6,820.9,843.9,1206.2c64.2,208.7,87.1,536.6,48.2,701.7c-34.4,146.8-135.3,357.7-243.1,502.2c-52.7,75.7-68.8,114.7-55,137.6c41.3,66.5,20.6,139.9-103.2,389.8l-126.1,252.2h231.6c229.3,0,288.9,13.8,376.1,94c45.9,41.3,50.4,39,172-20.6l126.1-61.9l648.9-6.9l651.3-6.9l-9.2,305c-6.9,256.8-16.1,323.3-59.6,419.6c-41.3,89.4-199.5,261.4-726.9,791.1l-676.5,676.5v880.6c0,997.5-18.3,1201.6-151.3,1602.9c-91.7,284.4-233.9,561.8-415.1,811.8c-142.1,199.5-483.8,538.9-658.1,660.4C5107.8,5013.1,4956.4,5036.1,4850.9,4978.7z M5208.7,4476.6c355.4-305,685.6-820.9,788.8-1236l16.1-61.9H5000H3986.4l16.1,61.9c66.5,270.6,277.5,667.3,497.6,937.9c139.9,174.3,444.9,444.9,499.9,444.9C5020.6,4623.3,5114.7,4556.8,5208.7,4476.6z M6086.9,2761.3c6.9-29.8,13.8-855.3,13.8-1834.5V-857.3h-458.6h-458.6v671.9c0,644.4-2.3,674.2-45.9,722.4c-61.9,64.2-142.2,84.9-211,48.2c-107.8-57.3-107.8-64.2-110.1-770.5v-671.9h-458.6h-458.6V940.5c0,988.3,6.9,1813.9,13.8,1834.5c11.5,32.1,130.7,36.7,1086.9,36.7h1073.2L6086.9,2761.3z M3520.9-575.2c-6.9-41.3-39-105.5-73.4-144.5c-107.8-128.4-149-137.6-603.1-137.6h-412.8v57.3c0,137.6,75.7,233.9,580.2,740.7l509.1,509.1l6.9-474.7C3532.4-288.6,3527.8-533.9,3520.9-575.2z M7522.4-641.7c25.2-50.4,45.9-119.2,45.9-153.6v-61.9h-421.9c-396.7,0-424.2,2.3-495.3,52.7c-169.7,114.7-172,119.3-178.9,722.3l-6.9,543.5l506.8-504.5C7279.4-350.5,7494.9-584.4,7522.4-641.7z M5412.8-1407.6l91.7-183.5H5000h-504.5l91.7,183.5l91.7,183.5h321h321L5412.8-1407.6z M4816.5-2127.7c0-213.3,48.2-288.9,183.5-288.9c135.3,0,183.4,75.7,183.4,291.2v169.7l165.1-6.9l165.1-6.9l133-158.2c73.4-87.2,160.5-215.6,197.2-286.6c55-112.4,61.9-156,61.9-346.3c0-422-169.7-745.3-642.1-1233.7l-261.4-268.3l-185.7,183.5c-536.6,527.4-756.7,949.4-726.9,1398.8c11.5,199.5,78,339.4,270.6,561.8l137.6,160.5H4656h160.5V-2127.7z"/><path d="M4832.6,2421.9c-211-55-408.2-220.1-502.2-424.2c-75.7-167.4-73.4-415,6.9-584.7c75.7-160.5,204.1-288.9,364.6-364.6c263.7-123.8,600.8-61.9,811.7,149.1c204.1,204.1,268.3,543.5,153.7,802.6c-64.2,146.8-231.6,311.9-378.4,378.4C5160.5,2433.4,4961,2454,4832.6,2421.9z M5160.5,2027.5c110.1-57.3,206.4-204.1,206.4-316.4c0-32.1-22.9-105.5-50.5-160.5c-57.3-110.1-204.1-206.4-316.4-206.4c-112.4,0-259.1,96.3-314.2,206.4c-29.8,55-52.7,128.4-52.7,160.5c0,32.1,22.9,105.5,52.7,160.5c55,110.1,201.8,206.4,314.2,206.4C5032.1,2077.9,5105.5,2055,5160.5,2027.5z"/><path d="M4940.4-2623c-64.2-25.2-123.8-110.1-123.8-174.3c0-27.5,20.6-75.7,48.2-110.1c66.5-84.8,204.1-84.8,270.6,0c61.9,77.9,61.9,153.6-2.3,224.7C5071.1-2616.1,5006.9-2595.5,4940.4-2623z"/><path d="M4935.8-3187.1c-94-66.5-52.7-192.6,64.2-192.6c73.4,0,114.7,39,114.7,105.5c0,45.9-73.4,123.8-114.7,123.8C4993.1-3150.4,4963.3-3166.5,4935.8-3187.1z"/></g></g>
</svg>