<svg x="0px" y="0px" viewBox="0 0 1000 1000">
<g><g transform="translate(0.000000,511.000000) scale(0.100000,-0.100000)"><path d="M643.4,4973.2c-2.2-69.6-89.1-232.6-169.5-319.5c-80.4-82.6-265.2-186.9-334.8-186.9c-21.7,0-39.1-8.7-39.1-21.7c0-10.9,17.4-21.7,39.1-21.7c76.1,0,256.5-104.3,336.9-195.6c86.9-93.5,165.2-243.5,167.4-308.7c0-21.7,10.9-39.1,21.7-39.1c13,0,21.7,17.4,21.7,39.1c2.2,67.4,89.1,230.4,169.5,317.4c80.4,82.6,265.2,186.9,336.9,186.9c19.6,0,37,10.9,37,21.7c0,13-17.4,21.7-37,21.7c-67.4,2.2-217.4,80.4-310.8,167.4c-91.3,80.4-195.6,260.8-195.6,339.1c0,19.6-8.7,37-21.7,37C654.3,5010.1,643.4,4992.7,643.4,4973.2z"/><path d="M4395.3,4421c-491.3-52.2-941.2-186.9-1415.1-421.7c-643.4-321.7-1132.5-741.2-1558.6-1339C1239,2406,973.8,1877.8,873.9,1575.6C600,734.4,600-182.9,873.9-1032.8c95.6-300,363-828.2,547.8-1084.7c428.2-599.9,917.3-1017.3,1558.6-1336.8c360.8-180.4,595.6-263,969.5-347.8c2075.9-460.8,4173.5,736.9,4853.9,2771.5c286.9,860.8,276,1786.8-32.6,2660.7c-71.8,202.1-78.3,241.3-50,256.5c84.8,47.8,293.5,239.1,363,336.9c556.5,754.3,213,1856.4-669.5,2149.8c-150,50-210.9,58.7-445.6,58.7c-239.1,0-291.3-6.5-430.4-56.5c-217.4-78.2-376.1-178.2-534.8-332.6l-132.6-130.4l-228.2,113C5958.2,4360.2,5160.4,4501.5,4395.3,4421z M5466.9,4045c380.4-69.6,765.1-197.8,1089-360.8c143.5-73.9,145.6-76.1,87-228.2l-21.7-54.3h-593.4c-328.3,0-650-8.7-713-21.7c-295.6-54.3-593.4-276.1-713-530.4c-84.8-178.3-110.9-336.9-110.9-673.9c0-230.4,8.7-302.1,41.3-373.9c97.8-213,384.8-300,578.2-173.9c78.2,50,82.6,45.6,71.7-76.1c-10.9-104.3-19.6-117.4-195.6-286.9C4784.4,1067,4717,953.9,4680.1,743.1l-21.7-134.8h-523.9c-486.9,0-530.4-2.2-623.9-45.6c-132.6-63-250-169.5-321.7-293.5l-58.7-104.3l-45.6,91.3c-84.8,173.9-223.9,317.4-515.2,536.9c-215.2,160.8-310.8,245.6-369.5,334.8c-132.6,200-143.5,282.6-143.5,1069.5v697.8l134.8,128.2c604.3,573.9,1321.6,921.7,2149.8,1041.2C4617,4103.7,5201.7,4092.8,5466.9,4045z M8316.7,4034.1c65.2-23.9,152.2-65.2,191.3-89.1l69.6-43.5l-43.5-43.5c-76.1-76.1-54.3-200,45.6-250c82.6-43.5,141.3-41.3,193.5,10.9l43.5,43.5l43.5-69.6c365.2-595.6,34.8-1376-658.6-1552c-147.8-39.1-404.3-32.6-530.4,13c-67.4,23.9-71.7,30.4-58.7,108.7c10.9,71.7,4.3,93.5-41.3,139.1c-69.6,69.6-160.9,73.9-239.1,13l-54.3-43.5l-87,95.6c-180.4,195.6-278.2,480.4-258.7,752.1c13,167.4,76.1,393.4,78.3,282.6c13-434.7,563-593.4,802.1-232.6c80.4,121.7,84.8,332.6,6.5,456.5c-100,163-332.6,252.2-504.3,191.3l-71.7-23.9l50,52.2c65.2,69.6,271.7,178.3,417.3,219.6C7871.1,4108,8158,4095,8316.7,4034.1z M7629.8,3577.6c56.5-58.7,67.4-84.8,67.4-176.1c0-93.5-10.9-117.4-71.7-178.2c-60.9-60.9-84.8-71.7-178.2-71.7c-93.5,0-117.4,10.9-178.3,71.7c-60.9,60.9-71.7,84.8-71.7,176.1c0,113,54.3,200,152.2,243.5C7429.8,3677.6,7558.1,3649.4,7629.8,3577.6z M6577.7,2984.2c2.2-145.6,67.4-382.6,156.5-560.8c69.6-139.1,132.6-226.1,256.5-347.8c360.8-363,821.7-486.9,1328.1-358.7c54.3,13,58.7,8.7,137-228.2c84.8-256.5,152.2-536.9,176.1-743.4l15.2-126.1h-484.7c-636.9,0-769.5-34.8-978.2-254.3c-456.5-471.7-276.1-1228.2,341.3-1434.7c145.6-47.8,178.3-82.6,193.5-200c37-300,95.6-473.9,210.8-636.9c21.7-28.3,8.7-56.5-71.7-163c-130.4-171.7-480.4-532.6-639.1-658.6c-606.5-480.4-1297.7-749.9-2097.7-815.1l-184.8-15.2l102.2,91.3c123.9,108.7,473.9,626,539.1,797.8c32.6,82.6,54.3,206.5,65.2,358.7c15.2,219.5,21.7,247.8,121.7,454.3c100,210.9,106.5,232.6,106.5,397.8c-2.2,147.8-10.9,193.4-58.7,286.9c-71.7,137-204.3,256.5-363,332.6c-119.6,56.5-128.2,56.5-730.4,67.4l-608.6,10.9l-163,106.5C3691-489.4,3564.9-372,3499.7-239.4c-89.1,184.8-54.3,334.7,108.7,454.3c54.3,41.3,95.6,45.6,476,52.2c569.5,8.7,565.2,10.9,813-286.9c60.9-73.9,163-76.1,234.8-2.2c71.7,69.6,67.4,130.4-21.7,317.4c-156.5,326.1-130.4,460.8,134.8,730.4c234.8,239.1,271.7,313,284.8,552.1c6.5,147.8,2.2,204.3-28.3,267.4c-95.7,202.2-356.5,252.2-543.4,102.2c-100-78.3-119.6-37-119.6,256.5c0,163,10.9,295.6,32.6,365.2c60.9,204.3,232.6,371.7,463,454.3c58.7,21.7,241.3,28.3,663,30.4h580.4V2984.2z M1760.7,1227.8c21.7-65.2,58.7-158.7,82.6-206.5c60.9-115.2,256.5-319.5,430.4-439.1c343.4-243.4,460.8-373.9,556.5-628.2c180.4-478.2,476-828.2,873.8-1028.2l91.3-45.6v-176.1v-176.1L4091-2011c160.9-297.8,313-597.8,339.1-667.3c30.4-84.8,50-210.9,58.7-386.9c8.7-143.5,28.3-282.6,43.5-310.8c13-26.1,67.4-78.3,115.2-115.2l91.3-65.2l-130.4,13c-389.1,41.3-645.6,91.3-969.5,195.6c-839.1,271.7-1604.2,860.8-2056.3,1586.8C817.3-528.5,826,1077.9,1608.6,2314.7l89.1,141.3l13-554.3C1721.6,1456.1,1730.3,1323.5,1760.7,1227.8z M8655.8,45.3c-23.9-360.8-106.5-767.3-221.7-1076c-69.6-184.8-250-567.3-269.6-567.3c-23.9,0-82.6,215.2-95.7,356.5c-26.1,232.6-186.9,436.9-382.6,484.7c-106.5,23.9-260.8,121.7-313,200c-202.1,291.3-65.2,706.5,265.2,806.5c32.6,10.9,278.2,19.6,545.6,19.6l486.9,2.2L8655.8,45.3z M5284.3-1148c100-39.1,154.3-84.8,206.5-173.9c60.9-102.2,50-241.3-26.1-358.7c-93.5-141.3-128.2-269.6-158.7-550c-34.8-321.7-47.8-352.1-293.4-697.8l-173.9-241.3v139.1c-2.2,317.4-82.6,528.2-491.3,1273.8c-193.5,356.5-204.3,380.4-204.3,506.5v130.4l539.1-2.2C5036.5-1122,5240.9-1130.7,5284.3-1148z"/><path d="M8175.4,3023.3c-219.5-95.6-271.7-386.9-100-558.7c243.4-245.6,643.4-26.1,580.4,317.4C8616.7,2986.4,8371,3110.3,8175.4,3023.3z M8401.5,2847.3c104.3-52.2,121.7-176.1,34.8-260.8c-84.8-86.9-208.7-69.6-260.8,34.8c-45.6,86.9-41.3,143.5,21.7,204.3C8258,2888.6,8314.5,2892.9,8401.5,2847.3z"/><path d="M8984-3097.9c-17.4-139.1-134.8-360.8-256.5-489.1c-126.1-134.8-365.2-267.4-515.2-286.9c-115.2-15.2-117.4-41.3-4.4-56.5c139.1-17.4,360.8-134.8,489.1-256.5c134.8-126.1,267.4-365.2,286.9-515.2c15.2-117.4,41.3-117.4,56.5,0c19.6,150,152.2,389.1,286.9,515.2c128.3,121.7,350,239.1,489.1,256.5c113,15.2,110.9,41.3-4.3,56.5c-150,19.6-389.1,152.2-515.2,286.9c-121.7,128.3-239.1,350-256.5,489.1C9025.3-2987,8999.3-2987,8984-3097.9z"/></g></g>
</svg>
