<svg x="0px" y="0px" viewBox="0 0 1000 1000">
<g><g transform="translate(0.000000,511.000000) scale(0.100000,-0.100000)"><path d="M4273.7,4996c-846-136.4-1520-704.1-1790.2-1509.1c-79.2-237.4-84.6-278.3-84.6-649.5c0-373.9,5.4-409.3,90-654.9c95.5-286.5,174.7-433.9,335.7-646.8c68.2-90.1,101-155.5,87.3-177.4c-10.9-19.1-387.5-455.7-837.8-971.5c-769.6-881.4-821.4-936-936-963.3c-68.2-19.1-196.5-79.2-283.8-136.4c-485.7-313.8-605.8-971.5-262-1440.9c117.4-158.3,332.9-308.4,521.2-363c125.5-38.2,155.6-65.5,373.9-338.4c131-163.7,237.4-305.6,237.4-313.8c2.7-8.2-57.3-24.6-131-32.8c-264.7-32.7-499.4-202-622.2-450.3c-98.2-202-106.4-472.1-16.4-663.1c73.7-163.7,234.7-324.8,406.6-409.3l133.7-65.5H5248h3752.3l155.6,76.4c169.2,81.9,286.5,202,382.1,382.1c90,166.5,87.3,502.1-2.8,674.1c-87.3,166.5-207.4,292-371.1,376.6l-136.4,73.7l-2802.6,8.2l-2802.6,5.5l-504.9,652.2c-493.9,638.6-504.9,654.9-480.3,745c32.7,114.6,35.5,362.9,2.7,477.6c-24.6,81.9-8.2,101,575.8,772.3c360.2,409.3,611.3,676.8,627.7,660.4C3657,100.3,3897.2-311.8,4181-803c281.1-491.2,521.2-895.1,532.1-895.1c10.9,0,332.9,305.6,717.7,679.5l698.6,676.8l221.1,2.7c442.1,2.7,769.5,133.7,1069.7,433.9c297.5,294.7,414.8,578.5,423,1023.4l2.7,232l704.1,682.2c387.5,376.6,706.8,687.7,706.8,695.9c2.7,16.4-2944.5,1640.1-3048.2,1678.3c-40.9,16.4-166.5,92.8-278.4,171.9c-259.2,182.8-485.7,292-755.9,363C4936.9,5001.4,4489.3,5028.7,4273.7,4996z M5111.5,4515.7c207.4-62.8,477.6-207.4,652.2-352c81.9-68.2,180.1-131,218.3-139.2c38.2-10.9,633.1-327.5,1320.8-704.1l1252.6-685l-592.2-575.8l-592.2-573.1l30-193.8C7513,575.1,6915.3-14.4,6197.6,105.7l-196.5,32.8L5782.9-74.4c-122.8-117.3-390.3-376.6-594.9-578.5c-207.4-201.9-379.3-363-387.5-357.5c-5.5,8.2-253.8,436.6-548.5,955.1c-297.5,518.5-540.3,944.2-543.1,947c-2.7,2.7-409.3-455.7-900.6-1017.9l-895.1-1026.1l57.3-131c73.7-174.6,73.7-376.6,0-524c-38.2-73.7-49.1-128.2-32.7-158.3c10.9-24.5,302.9-409.3,646.8-854.2l627.7-810.5h2851.7c2783.5,0,2857.2-2.7,2941.8-54.6c248.3-150.1,218.3-502.1-51.9-644c-62.8-32.7-641.3-38.2-3711.4-38.2c-3580.3,0-3640.4,0-3727.7,54.6c-177.4,109.2-237.4,297.5-152.8,477.6c81.9,177.4,128.3,188.3,723.2,204.7l534.9,13.6l-556.7,723.2c-461.2,597.7-575.8,725.9-644,745c-49.1,13.6-133.7,35.5-191,49.1c-300.2,79.1-483,458.5-357.5,755.9c71,174.7,297.5,360.2,439.4,360.2c125.5,2.7,300.2,177.4,1143.4,1146.2c488.5,562.2,908.7,1045.2,930.6,1069.7c79.1,90.1,24.6,267.4-152.8,491.2c-281.1,352-382,611.3-403.9,1031.5c-19.1,343.9,21.8,537.6,182.8,865.1c226.5,461.2,671.3,799.6,1214.4,925.1C4432,4592.1,4904.1,4575.7,5111.5,4515.7z"/></g></g>
</svg>
